<svg width="400" height="400" xmlns="http://www.w3.org/2000/svg">
 <!-- Created with Method Draw - http://github.com/duopixel/Method-Draw/ -->
 <g>
  <title>background</title>
  <rect fill="#ffffff" id="canvas_background" height="402" width="402" y="-1" x="-1"/>
  <g display="none" overflow="visible" y="0" x="0" height="100%" width="100%" id="canvasGrid">
   <rect fill="url(#gridpattern)" stroke-width="0" y="0" x="0" height="100%" width="100%"/>
  </g>
 </g>
 <g>
  <title>Layer 1</title>
  <line stroke-linecap="null" stroke-linejoin="null" id="svg_36" y2="175.499998" x2="173.5" y1="109.499995" x1="104.500001" stroke-width="5" stroke="#2196f3" fill="none"/>
  <line stroke-linecap="null" stroke-linejoin="null" id="svg_37" y2="295.499995" x2="288.499998" y1="237.499999" x1="233.500001" stroke-width="5" stroke="#2196f3" fill="none"/>
  <ellipse ry="50" rx="50" id="svg_1" cy="75" cx="75" stroke-width="2" stroke="#2196f3" fill="#8bc34a"/>
  <text transform="matrix(3.51182, 0, 0, 2.38169, -99.2167, -38.8066)" xml:space="preserve" text-anchor="start" font-family="Helvetica, Arial, sans-serif" font-size="36" id="svg_2" y="60.400648" x="39.5" stroke-width="0" stroke="#2196f3" fill="#ffffff">5</text>
  <ellipse ry="50" rx="50" id="svg_3" cy="77" cx="200" stroke-width="2" stroke="#2196f3" fill="#ffeb3b"/>
  <ellipse ry="50" rx="50" id="svg_5" cy="76" cx="325" stroke-width="2" stroke="#2196f3" fill="#ff9800"/>
  <path id="svg_8" d="m156,61.808693l32.849289,0l10.150726,-31.359472l10.150665,31.359472l32.849335,0l-26.575623,19.381004l10.15123,31.359528l-26.575607,-19.381569l-26.575623,19.381569l10.151245,-31.359528l-26.575623,-19.381004z" stroke-width="2" fill="#ffffff"/>
  <path id="svg_11" d="m327.022705,51.12291c1.285034,-2.281696 3.6362,-5.253971 -0.403351,-5.971024c-1.125244,-0.566372 -2.250854,-1.568565 -3.374695,-0.452141c-2.500397,0.968472 -4.667969,2.322838 -2.037994,4.857563c1.16626,1.636925 2.22699,5.208534 3.548096,5.601891c0.788452,-1.327507 1.5271,-2.682899 2.267944,-4.036293zm-5.523834,6.300045c-2.295441,-4.016869 -4.142609,-8.326233 -6.952087,-12.03186c-3.417053,-3.577095 -10.149841,-1.982544 -11.679871,2.631413c-2.032501,4.561687 2.352905,10.00819 7.317474,9.437233c3.767303,0.061867 7.556061,0.228195 11.314484,-0.036785zm19.07431,0.135605c4.882111,-0.641655 7.689667,-6.667782 4.909973,-10.668987c-2.463257,-4.269993 -9.549927,-4.41885 -12.023956,-0.079597c-2.142212,3.508087 -4.001587,7.173882 -5.967377,10.778137c4.346008,0.243641 8.73291,0.18681 13.08136,-0.029552zm8.085236,5.137848c1.664368,-1.435871 8.109344,-3.128635 3.228241,-4.492287c-1.209167,-0.33643 -2.618896,-1.879791 -3.705627,-1.457436c-2.359802,2.876686 -5.98819,4.564285 -9.776581,4.387524c-0.741608,0.23901 -4.5242,-0.363522 -3.502167,0.32085c2.672546,1.494148 5.277832,3.116791 8.042175,4.442986c1.936249,-1.011063 3.815399,-2.124817 5.713959,-3.201637zm-38.024414,0.812935c1.423279,-0.812935 2.846558,-1.62587 4.269836,-2.438797c-4.350525,-0.211952 -9.329285,0.402878 -12.617126,-3.027946c-0.926971,-1.017696 -1.815887,-2.18285 -3.100647,-0.901608c-1.538879,1.039482 -6.272247,2.104713 -2.627808,3.373638c3.173492,1.838058 6.324646,3.720963 9.576599,5.423042c1.549561,-0.712494 3.010284,-1.602966 4.499146,-2.428329zm20.858521,9.070602c1.844421,-1.453011 6.311859,-2.837326 6.461121,-4.396545c-4.170044,-2.352783 -8.218597,-4.972366 -12.581268,-6.961033c-1.501373,-0.558483 -2.718628,0.300854 -3.927094,1.047237c-3.573578,2.084114 -7.233063,4.038879 -10.690338,6.304871c4.521454,2.741333 9.09729,5.401604 13.71759,7.979614c2.356628,-1.29599 4.68277,-2.644936 7.019989,-3.974144zm18.503906,4.535301c1.913483,-1.183739 3.826935,-2.367485 5.740417,-3.551231c-0.015656,-3.964729 0.04892,-7.931122 -0.061707,-11.894466c-3.861938,2.112827 -7.668945,4.33115 -11.411682,6.641033c-0.409363,4.089218 -0.201752,8.246056 -0.112793,12.355888c1.974945,-1.140823 3.901917,-2.360992 5.845764,-3.551224zm-44.876373,-2.497856c0.194336,-3.379601 0.613251,-7.232162 -3.543579,-8.233292c-2.625061,-1.200424 -6.263672,-4.276131 -8.286011,-4.245285c-0.062988,3.80806 -0.029663,7.616806 -0.036469,11.425201c3.877655,2.37262 7.686523,4.859459 11.647858,7.096046c0.384125,-1.963005 0.133026,-4.0439 0.218201,-6.042671zm27.767883,13.085419c2.293579,-1.419716 4.587158,-2.839417 6.880707,-4.259125c-0.01062,-4.093132 0.162018,-8.192131 -0.026672,-12.280861c-2.52063,0.708717 -5.403625,2.899391 -8.059265,4.260094c-1.988495,1.142044 -3.97699,2.284103 -5.965515,3.42614c0.039215,4.370461 -0.107178,8.748894 0.14502,13.112869c2.377167,-1.361839 4.691162,-2.82856 7.025726,-4.259117zm-9.614471,-2.297318c0,-2.185471 0,-4.370956 0,-6.556435c-4.604279,-2.638184 -9.193817,-5.301376 -13.816071,-7.909233c-0.255615,4.179253 -0.109528,8.374214 -0.148102,12.560684c4.603271,2.825783 9.158844,5.728737 13.820313,8.461418c0.181427,-2.177727 0.115173,-4.372833 0.14386,-6.556435zm26.837402,8.785561c1.876434,-1.225105 3.752869,-2.450218 5.629303,-3.675331c-0.078308,-3.884171 0.193298,-7.820915 -0.201691,-11.662231c-3.902283,2.182915 -7.668365,4.668121 -11.501099,6.998466c0.092072,4.018837 -0.189056,8.083687 0.234375,12.068184c1.979645,-1.191368 3.899017,-2.477272 5.839111,-3.729088zm-45.032257,-2.177528c-0.015259,-2.03653 -0.030548,-4.073051 -0.045837,-6.109573c-3.876617,-2.378006 -7.704468,-4.835564 -11.639343,-7.120056c-0.246246,3.901672 -0.105896,7.81855 -0.142944,11.727196c3.910828,2.53817 7.777618,5.143608 11.740845,7.602554c0.151855,-2.027313 0.076477,-4.068336 0.08728,-6.100121zm27.908447,13.383179c2.277832,-1.483246 4.555664,-2.966484 6.833496,-4.449722c-0.00531,-4.135849 0.080414,-8.273483 -0.032928,-12.407913c-4.63678,2.803154 -9.242493,5.657898 -13.81427,8.56179c-0.516663,3.993561 -0.181671,8.111061 -0.182434,12.14827c1.418945,0.847404 5.046936,-2.908188 7.196136,-3.852425zm-9.713593,-1.770477c-0.275421,-2.851799 1.184631,-6.865875 -2.512054,-7.971436c-3.728027,-2.315125 -7.44104,-4.655525 -11.218109,-6.89315c-0.550507,3.91523 0.025269,7.994003 -0.397644,11.957146c4.529419,3.21035 9.177185,6.279396 13.909637,9.194054c0.379547,-2.042526 0.143463,-4.206085 0.21817,-6.286613zm-15.840698,-0.753891c-5.512878,-3.608276 -11.025787,-7.216545 -16.538696,-10.824821c0.006226,-11.135635 -0.150696,-22.273949 0.050903,-33.407494c2.76059,-1.670094 5.698303,-3.039154 8.539368,-4.571419c-1.835022,-5.150463 0.812561,-11.40937 6.133514,-13.337238c4.460419,-1.794434 9.837128,-0.175091 12.680878,3.602501c2.065521,-1.038647 4.131073,-2.077297 6.196594,-3.115948c2.07663,1.048042 4.15329,2.096092 6.229889,3.144135c2.975616,-3.460735 8.073608,-5.435692 12.491516,-3.496201c5.302948,1.827541 8.193451,8.072456 6.291718,13.214832c2.861938,1.584267 5.973572,2.822266 8.597687,4.755474c0.116302,11.069687 0.001007,22.140999 -0.009521,33.211372c-10.96936,7.117607 -21.760956,14.50692 -32.908386,21.353905c-3.241516,-0.000854 -6.039398,-3.451691 -9.047272,-4.8508c-2.907959,-1.885017 -5.808624,-3.780891 -8.708191,-5.678291z" stroke-width="2" stroke="#ffffff" fill="none"/>
  <ellipse ry="50" rx="50" id="svg_13" cy="200" cx="75" stroke-width="2" stroke="#2196f3" fill="#e91e63"/>
  <ellipse ry="50" rx="50" id="svg_14" cy="325" cx="75" stroke-width="2" stroke="#2196f3" fill="#ffeb3b"/>
  <ellipse ry="50" rx="50" id="svg_15" cy="325" cx="200" stroke-width="2" stroke="#2196f3" fill="#ff9800"/>
  <ellipse ry="50" rx="50" id="svg_16" cy="325" cx="75" stroke-width="2" stroke="#2196f3" fill="#ffeb3b"/>
  <ellipse ry="50" rx="50" id="svg_18" cy="325" cx="75" stroke-width="2" stroke="#2196f3" fill="#ffffff"/>
  <ellipse ry="50" rx="50" id="svg_21" cy="75" cx="75" stroke-width="2" stroke="#2196f3" fill="#8bc34a"/>
  <text transform="matrix(3.51182, 0, 0, 2.38169, -99.2167, -38.8066)" xml:space="preserve" text-anchor="start" font-family="Helvetica, Arial, sans-serif" font-size="36" id="svg_22" y="60.400648" x="39.5" stroke-width="0" stroke="#2196f3" fill="#ffffff">5</text>
  <ellipse ry="50" rx="50" id="svg_23" cy="204" cx="200" stroke-width="2" stroke="#2196f3" fill="#8bc34a"/>
  <ellipse ry="50" rx="50" id="svg_24" cy="325" cx="325" stroke-width="2" stroke="#2196f3" fill="#8bc34a"/>
  <text transform="matrix(3.51182, 0, 0, 2.38169, -99.2167, -38.8066)" xml:space="preserve" text-anchor="start" font-family="Helvetica, Arial, sans-serif" font-size="36" id="svg_25" y="114.563868" x="75.094078" stroke-width="0" stroke="#2196f3" fill="#ffffff">5</text>
  <text transform="matrix(3.51182, 0, 0, 2.38169, -99.2167, -38.8066)" xml:space="preserve" text-anchor="start" font-family="Helvetica, Arial, sans-serif" font-size="36" id="svg_26" y="166.207866" x="110.68816" stroke-width="0" stroke="#2196f3" fill="#ffffff">5</text>
  <ellipse ry="50" rx="50" id="svg_27" cy="200" cx="325" stroke-width="2" stroke="#2196f3" fill="#ffffff"/>
  <path id="svg_28" d="m96.709335,196.812134c-2.628807,-3.818726 -5.845161,-6.909241 -9.071487,-9.072601c-3.764381,2.217163 -8.349442,3.56723 -13.347816,3.56723c-5.008324,0 -9.599785,-1.35257 -13.35767,-3.56723c-3.226112,2.163361 -6.445824,5.253876 -9.081146,9.072601c-6.117695,8.864899 -6.79055,17.958771 -1.506424,20.316071c2.366215,1.062286 4.847431,0.270264 7.41066,-1.714172c-0.449516,2.013214 -0.712299,4.195343 -0.712299,6.47757c0,10.141159 4.900173,18.355408 10.939011,18.355408c3.639641,0 5.441475,-2.990417 6.307869,-7.571121c0.863266,4.580704 2.664986,7.571121 6.291634,7.571121c6.048683,0 10.948875,-8.214249 10.948875,-18.355408c0,-2.282227 -0.26281,-4.464355 -0.72216,-6.47757c2.569801,1.984436 5.047577,2.776459 7.420509,1.714172c5.280754,-2.3573 4.598061,-11.451172 -1.519554,-20.316071zm-22.425797,-8.964996c10.161026,0 18.4021,-6.626465 18.4021,-14.80069s-8.241074,-14.799438 -18.4021,-14.799438c-10.164383,0 -18.411854,6.627716 -18.411854,14.799438s8.247471,14.80069 18.411854,14.80069z" stroke-width="2" fill="#ffffff"/>
  <path id="svg_29" d="m220.517395,290.999908c-6.205978,5.14325 -14.783768,5.193146 -21.036865,0.153351c-6.014114,4.848938 -14.182022,4.987732 -20.319412,0.416229l-11.035858,12.151917c6.788605,7.610291 6.74913,19.837555 -0.116028,27.395721c-0.911133,2.580475 -1.388657,2.456024 -1.488068,5.054718c-0.233749,6.2565 1.135193,12.093048 5.423126,16.4888c3.830399,3.926636 9.028412,5.59201 14.021515,4.997833c8.337875,0.474335 12.335083,4.45047 14.012329,6.828613c2.264832,-2.541046 5.786835,-6.626068 16.491226,-7.135284c6.390076,-1.015564 8.69931,-2.656189 11.698334,-5.689453c4.036575,-4.138 5.448013,-9.37796 5.329056,-15.200043c-0.049393,-2.417053 -0.318024,-3.257385 -1.644333,-6.343506c-6.897018,-7.593201 -6.902023,-19.89978 -0.018311,-27.502136l-11.316742,-11.61676z" stroke-width="2" fill="#ffffff"/>
  <text transform="matrix(0.937809, 0, 0, 0.978187, 66.8784, -21.8836)" xml:space="preserve" text-anchor="start" font-family="Helvetica, Arial, sans-serif" font-size="28" id="svg_30" y="250.997084" x="256.599644" stroke-width="0" fill="#2196f3">G5</text>
  <path id="svg_32" d="m342.001221,175.139465c-4.324921,-4.017059 -8.989624,-7.23497 -12.816101,-7.673676c-0.208282,-0.028442 -0.424042,-0.045044 -0.652222,-0.049789l-25.183319,0c-0.401703,0 -0.798462,0.149414 -1.081146,0.426834c-0.280243,0.27037 -0.446442,0.64975 -0.446442,1.036285l0,61.06189c0,0.384171 0.156281,0.751724 0.446442,1.031525c0.2901,0.27507 0.672028,0.424469 1.081146,0.424469l45.540833,0c0.401703,0 0.786072,-0.147049 1.076233,-0.424469c0.290161,-0.277451 0.451355,-0.645004 0.451355,-1.031525l0,-40.632843c-0.089294,-4.716583 -3.952942,-9.859985 -8.416779,-14.168701zm5.356567,53.333679l-42.485504,0l0,-58.140411l23.663116,0l0,0.004745c1.031677,-0.059265 1.921936,0.915329 2.603943,3.144409c0.619965,2.122345 0.776184,4.889679 0.773682,6.80809c0.004974,1.406219 -0.066925,2.350006 -0.066925,2.350006l-0.121521,1.546112l1.626831,0.016571c0.007416,0 3.759491,0.042709 7.439697,0.841858c3.536285,0.730362 6.301361,2.186356 6.559265,3.834427c0.009918,0.147049 0.012421,0.294067 0.009918,0.431595l0,39.162598z" stroke-width="2" fill="#2196f3"/>
  <text xml:space="preserve" text-anchor="start" font-family="Helvetica, Arial, sans-serif" font-size="28" id="svg_33" y="347.5" x="178.5" fill-opacity="null" stroke-opacity="null" stroke-width="0" stroke="null" fill="#2196f3">win</text>
  <text xml:space="preserve" text-anchor="start" font-family="Helvetica, Arial, sans-serif" font-size="24" id="svg_34" y="322.5" x="191.5" fill-opacity="null" stroke-opacity="null" stroke-width="0" stroke="null" fill="#2196f3">#</text>
  <path id="svg_35" d="m75.969994,290.824707c-19.330093,0 -34.999992,14.15741 -34.999992,31.623871c0,5.967621 1.852528,11.544678 5.039963,16.305908l-5.039963,13.314178l14.032436,-4.33847c5.847473,3.963867 13.092579,6.344482 20.967556,6.344482c19.330147,0 35.000008,-14.159729 35.000008,-31.626099s-15.669861,-31.623871 -35.000008,-31.623871zm2.455254,49.506165l-4.92289,0l0,-5.689575l4.92289,0l0,5.689575zm0,-11.765289l0,1.881989l-4.92289,0l0,-2.316284c0,-6.990234 6.602814,-8.097809 6.602814,-13.06134c0,-2.265747 -1.679932,-4.00296 -3.882431,-4.00296c-2.280251,0 -4.282494,2.024475 -4.282494,2.024475l-2.800491,-4.195984c0,0 2.760429,-3.472168 7.522636,-3.472168c4.525185,0 8.725182,3.375641 8.725182,9.062988c0.002396,7.959991 -6.962334,8.874542 -6.962334,14.079285z" stroke-width="2" fill="#2196f3"/>
 </g>
</svg>