<svg width="40" height="40" xmlns="http://www.w3.org/2000/svg">
 <g>
  <title>Layer 1</title>
  <path id="svg_1" d="m32.59193,14.143616c0.026943,-0.359121 0.042587,-0.721927 0.042587,-1.088414c0,-6.356349 -3.973866,-11.508471 -8.876474,-11.508471c-3.804853,0 -7.041571,3.110083 -8.304177,7.474085c-0.836508,-1.189567 -2.029501,-1.950028 -3.368773,-1.950028c-2.525164,0 -4.571732,2.653506 -4.571732,5.927344c0,0.386687 0.032641,0.764242 0.088039,1.1288c-3.368843,0.719985 -5.946552,4.485516 -5.946552,9.055864c0,5.085905 3.179896,9.206871 7.10122,9.206871l4.834486,0l-1.004112,-1.301943c-0.535416,-0.694174 -0.830891,-1.618565 -0.830891,-2.60178c0,-0.981476 0.295475,-1.905867 0.830891,-2.600039l0.789637,-1.025545c0.568118,-0.734741 1.330741,-1.156372 2.089164,-1.156372c0.038328,0 0.076727,0 0.113638,0.003693l0,-0.869253c0,-2.032833 1.275347,-3.686337 2.840479,-3.686337l4.638498,0c1.566477,0 2.840473,1.653503 2.840473,3.686337l0,0.869253c0.038326,-0.003693 0.076662,-0.003693 0.115067,-0.003693c0.756926,0 1.519609,0.421631 2.087727,1.160059l0.791063,1.016413c1.107807,1.438042 1.107807,3.774837 0,5.207264l-1.002697,1.301943l3.41287,0c3.92268,0 7.101154,-4.120966 7.101154,-9.206871c0.001419,-4.513266 -2.506733,-8.251238 -5.811584,-9.039181zm-4.703852,13.040545l-0.789642,-1.022017c-0.553904,-0.716318 -1.369146,-0.828693 -1.812252,-0.252184c-0.443106,0.574408 -0.806707,0.21723 -0.806707,-0.795496l0,-2.279722c0,-1.012724 -0.640516,-1.841246 -1.420197,-1.841246l-4.637079,0c-0.781178,0 -1.420279,0.828522 -1.420279,1.841246l0,2.279722c0,1.012726 -0.363525,1.369904 -0.808126,0.795496c-0.44311,-0.576509 -1.259702,-0.464134 -1.81218,0.252184l-0.789637,1.022017c-0.553904,0.716301 -0.553904,1.885494 -0.001426,2.601788l6.146745,7.975004c0.275564,0.357189 0.640581,0.535778 1.004118,0.535778s0.727201,-0.178589 1.004118,-0.535778l6.145388,-7.975004c0.552479,-0.714363 0.551054,-1.885487 -0.002844,-2.601788z" stroke-width="1.5" stroke="#000" fill="#fff"/>
 </g>
</svg>