<svg width="240" height="60" xmlns="http://www.w3.org/2000/svg">
  <path id="svg_1" d="m31.45599,26.566769c-1.481747,-2.235134 -3.294609,-4.04467 -5.112995,-5.310574c-2.12183,1.297581 -4.706024,2.087624 -7.523352,2.087624c-2.822882,0 -5.410828,-0.791653 -7.528849,-2.087624c-1.818455,1.265903 -3.633108,3.075439 -5.118519,5.310574c-3.448175,5.189396 -3.827353,10.512299 -0.849134,11.892475c1.333763,0.621716 2.732239,0.158325 4.176989,-1.004032c-0.253439,1.17857 -0.401436,2.455948 -0.401436,3.792126c0,5.936226 2.76185,10.744789 6.165533,10.744789c2.0515,0 3.06708,-1.750885 3.555416,-4.431679c0.486536,2.680794 1.502085,4.431679 3.546152,4.431679c3.409248,0 6.171146,-4.808563 6.171146,-10.744789c0,-1.336178 -0.148056,-2.613556 -0.407017,-3.792126c1.448418,1.162357 2.845085,1.625748 4.182541,1.004032c2.976387,-1.380177 2.591537,-6.703079 -0.856476,-11.892475zm-12.63998,-5.248001c5.727093,0 10.37204,-3.878641 10.37204,-8.663279s-4.644947,-8.663354 -10.37204,-8.663354c-5.729074,0 -10.377697,3.879452 -10.377697,8.663354s4.648623,8.663279 10.377697,8.663279z" stroke-width="1.5" fill="#2196f3"/>
  <path id="svg_2" d="m62.067986,29.840315c-1.313606,-1.987583 -2.922424,-3.596174 -4.535431,-4.720779c-1.881996,1.153372 -4.173943,1.855036 -6.675743,1.855036c-2.503036,0 -4.798553,-0.703699 -6.678009,-1.855036c-1.613018,1.124605 -3.222034,2.733196 -4.540516,4.720779c-3.057709,4.612303 -3.3955,9.344 -0.754684,10.571638c1.183113,0.552635 2.424381,0.140057 3.705891,-0.892502c-0.225544,1.046989 -0.359402,2.182529 -0.359402,3.370937c0,5.276936 2.449726,9.551399 5.469704,9.551399c1.819046,0 2.720585,-1.557068 3.153023,-3.940147c0.432182,2.38308 1.333172,3.940147 3.148014,3.940147c3.023987,0 5.473709,-4.274464 5.473709,-9.551399c0,-1.188408 -0.131126,-2.323948 -0.361076,-3.370937c1.285728,1.032558 2.524834,1.445137 3.710045,0.892502c2.645081,-1.227638 2.303093,-5.959335 -0.755524,-10.571638zm-11.213692,-4.665091c5.082664,0 9.202698,-3.448639 9.202698,-7.701153s-4.120033,-7.701175 -9.202698,-7.701175c-5.081585,0 -9.205162,3.447901 -9.205162,7.701175s4.123577,7.701153 9.205162,7.701153zm6.286972,-15.807413c2.655983,0.818404 1.057434,-1.305174 1.057434,-2.755857s1.639465,-3.224767 -1.057434,-2.503128c-2.830338,0.75929 -5.125221,1.176772 -5.125221,2.629491s2.294884,1.756234 5.125221,2.629494zm-6.269566,-1.033205c1.681873,0 0.742302,-0.712668 0.742302,-1.590831c0,-0.878718 0.942089,-1.589352 -0.742302,-1.589352s-0.804008,0.712669 -0.804008,1.589352c0,0.880198 -0.87804,1.590831 0.804008,1.590831zm-6.305809,1.033205c2.830311,-0.871224 5.125202,-1.177423 5.125202,-2.629494s-2.294891,-1.870201 -5.125202,-2.629491c-2.69688,-0.723674 -1.058487,1.051148 -1.058487,2.503128s-1.599579,3.572967 1.058487,2.755857z" stroke-width="1.5" fill="#ffeb3b"/>
  <path id="svg_3" d="m94.955994,27.566769c-1.48175,-2.235134 -3.294617,-4.04467 -5.112999,-5.310574c-2.121834,1.297581 -4.706024,2.087624 -7.523354,2.087624c-2.822876,0 -5.410828,-0.791653 -7.528847,-2.087624c-1.818459,1.265903 -3.63311,3.075439 -5.118523,5.310574c-3.448174,5.189396 -3.827347,10.512299 -0.849129,11.892475c1.333763,0.621716 2.732239,0.158325 4.176987,-1.004032c-0.253441,1.17857 -0.401436,2.455948 -0.401436,3.792126c0,5.936226 2.761848,10.744789 6.165535,10.744789c2.051498,0 3.067078,-1.750885 3.555412,-4.431679c0.486542,2.680794 1.50209,4.431679 3.546158,4.431679c3.409241,0 6.171143,-4.808563 6.171143,-10.744789c0,-1.336178 -0.148056,-2.613556 -0.407013,-3.792126c1.44841,1.162357 2.845078,1.625748 4.182541,1.004032c2.976379,-1.380177 2.591537,-6.703079 -0.856476,-11.892475zm-12.639984,-5.248001c5.727097,0 10.37204,-3.878643 10.37204,-8.663279s-4.644943,-8.663355 -10.37204,-8.663355c-5.729073,0 -10.377701,3.879452 -10.377701,8.663355s4.648628,8.663279 10.377701,8.663279z" stroke-width="1.5" fill="#e91e63"/>
  <path id="svg_4" d="m125.567978,29.840315c-1.313599,-1.987583 -2.922424,-3.596174 -4.535431,-4.720779c-1.881989,1.153372 -4.173935,1.855036 -6.675735,1.855036c-2.503036,0 -4.798553,-0.703699 -6.678009,-1.855036c-1.613022,1.124605 -3.222038,2.733196 -4.54052,4.720779c-3.057709,4.612303 -3.3955,9.344 -0.754684,10.571638c1.183113,0.552635 2.424385,0.140057 3.705894,-0.892502c-0.225548,1.046989 -0.359406,2.182529 -0.359406,3.370937c0,5.276936 2.44973,9.551399 5.469704,9.551399c1.819046,0 2.720589,-1.557068 3.153023,-3.940147c0.432182,2.38308 1.333176,3.940147 3.14801,3.940147c3.023987,0 5.473709,-4.274464 5.473709,-9.551399c0,-1.188408 -0.131119,-2.323948 -0.361069,-3.370937c1.285721,1.032558 2.524826,1.445137 3.710037,0.892502c2.645081,-1.227638 2.303101,-5.959335 -0.755524,-10.571638zm-11.213684,-4.665091c5.082657,0 9.202698,-3.448639 9.202698,-7.701153s-4.120041,-7.701175 -9.202698,-7.701175c-5.081589,0 -9.205162,3.447901 -9.205162,7.701175s4.123573,7.701153 9.205162,7.701153zm6.286972,-15.807413c2.655975,0.818404 1.057434,-1.305174 1.057434,-2.755857s1.639465,-3.224767 -1.057434,-2.503128c-2.830338,0.75929 -5.125221,1.176772 -5.125221,2.629491s2.294884,1.756234 5.125221,2.629494zm-6.269569,-1.033205c1.681877,0 0.742302,-0.712668 0.742302,-1.590831c0,-0.878718 0.942093,-1.589352 -0.742302,-1.589352s-0.804008,0.712669 -0.804008,1.589352c0,0.880198 -0.878036,1.590831 0.804008,1.590831zm-6.305809,1.033205c2.830315,-0.871224 5.125206,-1.177423 5.125206,-2.629494s-2.294891,-1.870201 -5.125206,-2.629491c-2.696877,-0.723674 -1.058487,1.051148 -1.058487,2.503128s-1.599579,3.572967 1.058487,2.755857z" stroke-width="1.5" fill="#ff9800"/>
  <text xml:space="preserve" text-anchor="start" font-family="Helvetica, Arial, sans-serif" font-size="24" id="svg_5" y="38.75002" x="12.000088" stroke-opacity="null" stroke-width="0" stroke="#000" fill="#ffffff">g</text>
  <text xml:space="preserve" text-anchor="start" font-family="Helvetica, Arial, sans-serif" font-size="24" id="svg_6" y="45.749999" x="44.000006" stroke-opacity="null" stroke-width="0" stroke="#000" fill="#ffffff">a</text>
  <text xml:space="preserve" text-anchor="start" font-family="Helvetica, Arial, sans-serif" font-size="24" id="svg_7" y="39.25" x="72.500002" stroke-opacity="null" stroke-width="0" stroke="#000" fill="#ffffff">m</text>
  <text xml:space="preserve" text-anchor="start" font-family="Helvetica, Arial, sans-serif" font-size="24" id="svg_8" y="45.249999" x="107.499998" stroke-opacity="null" stroke-width="0" stroke="#000" fill="#ffffff">e</text>
  <path id="svg_9" d="m156.567978,29.840315c-1.313599,-1.987583 -2.922424,-3.596174 -4.535431,-4.720779c-1.881989,1.153372 -4.173935,1.855036 -6.675735,1.855036c-2.503036,0 -4.798553,-0.703699 -6.678009,-1.855036c-1.613022,1.124605 -3.222046,2.733196 -4.540527,4.720779c-3.057709,4.612303 -3.395493,9.344 -0.754684,10.571638c1.183121,0.552635 2.424393,0.140057 3.705902,-0.892502c-0.225555,1.046989 -0.359406,2.182529 -0.359406,3.370937c0,5.276936 2.449722,9.551399 5.469696,9.551399c1.819046,0 2.720596,-1.557068 3.15303,-3.940147c0.432175,2.38308 1.333176,3.940147 3.14801,3.940147c3.023987,0 5.473709,-4.274464 5.473709,-9.551399c0,-1.188408 -0.131119,-2.323948 -0.361069,-3.370937c1.285721,1.032558 2.524826,1.445137 3.710037,0.892502c2.645081,-1.227638 2.303101,-5.959335 -0.755524,-10.571638zm-11.213684,-4.665091c5.082657,0 9.202698,-3.448639 9.202698,-7.701153s-4.120041,-7.701175 -9.202698,-7.701175c-5.081589,0 -9.20517,3.447901 -9.20517,7.701175s4.123581,7.701153 9.20517,7.701153zm6.286972,-15.807413c2.655975,0.818404 1.057434,-1.305174 1.057434,-2.755857s1.639465,-3.224767 -1.057434,-2.503128c-2.830338,0.75929 -5.125229,1.176772 -5.125229,2.629491s2.294891,1.756234 5.125229,2.629494zm-6.269577,-1.033205c1.681885,0 0.74231,-0.712668 0.74231,-1.590831c0,-0.878718 0.942093,-1.589352 -0.74231,-1.589352s-0.804001,0.712669 -0.804001,1.589352c0,0.880198 -0.878036,1.590831 0.804001,1.590831zm-6.305801,1.033205c2.830307,-0.871224 5.125198,-1.177423 5.125198,-2.629494s-2.294891,-1.870201 -5.125198,-2.629491c-2.696884,-0.723674 -1.058487,1.051148 -1.058487,2.503128s-1.599579,3.572967 1.058487,2.755857z" stroke-width="1.5" fill="#8bc34a"/>
  <text xml:space="preserve" text-anchor="start" font-family="Helvetica, Arial, sans-serif" font-size="24" id="svg_10" y="45.749999" x="138.499994" stroke-opacity="null" stroke-width="0" stroke="#000" fill="#ffffff">5</text>
  <path id="svg_11" d="m226.470734,20.219604l-27.349838,0l13.676559,7.845909l13.673279,-7.845909zm-12.866333,11.188404c-0.250275,0.144417 -0.530258,0.217278 -0.806946,0.217278s-0.556961,-0.072861 -0.810242,-0.217278l-13.939758,-7.995174l0,16.306767l29.5,0l0,-16.306767l-13.943054,7.995174z" stroke-width="1.5" fill="#000000"/>
  <path id="svg_12" d="m178.216934,22.195419c-4.418396,0 -7.999939,3.581673 -7.999939,8c0,4.418232 3.581543,7.999996 7.999939,7.999996c4.418106,0 8.000061,-3.581764 8.000061,-7.999996c0,-4.418327 -3.581955,-8 -8.000061,-8zm-1.285156,13.353046l-1.94664,-1.948128l3.405685,-3.405388l-3.405685,-3.405293l1.94664,-1.946526l5.352539,5.351818l-5.352539,5.353516z" stroke-opacity="null" stroke-width="1.5" stroke="null" fill="#000000"/>
  <text xml:space="preserve" text-anchor="start" font-family="Helvetica, Arial, sans-serif" font-size="12" id="svg_13" y="49.250005" x="198.499987" stroke-opacity="null" stroke-width="0" stroke="null" fill="#000000">email</text>
</svg>