<svg width="500" height="150" xmlns="http://www.w3.org/2000/svg">
 <!-- Created with Method Draw - http://github.com/duopixel/Method-Draw/ -->
 <g>
  <title>background</title>
  <rect fill="#fff" id="canvas_background" height="202" width="502" y="-1" x="-1"/>
 </g>
 <g>
  <title>Layer 1</title>
  <path id="svg_1" d="m88.766098,29.537313c-7.528854,-7.344645 -15.649139,-13.228163 -22.310272,-14.030264c-0.36264,-0.052029 -0.73822,-0.082378 -1.135376,-0.091049l-43.839174,0c-0.699354,0 -1.390076,0.273149 -1.882215,0.780422c-0.48782,0.494268 -0.77706,1.187977 -0.77706,1.894693l0,111.643778c0,0.702393 0.271973,1.37442 0.77706,1.886032c0.505089,0.50293 1.169907,0.776077 1.882215,0.776077l79.277452,0c0.699364,0 1.368492,-0.268814 1.873581,-0.776077c0.505096,-0.507278 0.78569,-1.179306 0.78569,-1.886032l0,-74.291889c-0.155403,-8.623665 -6.881302,-18.02776 -14.651901,-25.905691zm9.324722,97.513796l-73.958904,0l0,-106.302221l41.192852,0l0,0.008671c1.795868,-0.108393 3.345673,1.673574 4.532845,5.749113c1.079254,3.880434 1.351234,8.940174 1.346909,12.447739c0.008636,2.57106 -0.116554,4.296665 -0.116554,4.296665l-0.21154,2.826859l2.831955,0.03035c0.012955,0 6.544579,0.078041 12.951012,1.539169c6.156052,1.335388 10.969505,3.997498 11.41848,7.010796c0.017265,0.268814 0.021584,0.537624 0.017265,0.789093l0,71.603767z" stroke-width="2" stroke="#2196f3" fill="#2196f3"/>
  <path id="svg_2" d="m483.119934,50.224564c-0.020355,-11.761703 -9.109528,-21.291445 -20.328735,-21.30743l0,-0.005325l-62.307861,0c-2.567139,-8.640163 -10.222839,-14.957817 -19.342529,-14.973803l-14.614929,0c-11.224243,0.010655 -20.318542,9.545734 -20.338867,21.307428l0,75.577457c0.020325,11.751053 9.114624,21.280792 20.338867,21.302109l96.270416,0c11.208984,-0.021317 20.30838,-9.551056 20.328705,-21.302109l0,-60.598328zm-116.599121,-25.638165l14.614929,0c5.317322,-0.021305 9.744965,4.4426 10.080475,9.993187l0.29483,4.991264l71.280182,0c5.556213,0.010651 10.151642,4.826134 10.161835,10.653713l0,2.636795c-3.004333,-1.837765 -6.445831,-2.96706 -10.166931,-2.972385l-96.270386,0c-3.7211,0.005325 -7.167664,1.139946 -10.166931,2.977715l0,-17.626568c0.015289,-5.827587 4.610718,-10.643068 10.171997,-10.653721zm96.26532,96.884884l-96.26532,0c-5.556213,-0.010658 -10.151642,-4.836792 -10.171997,-10.653717l0,-39.621162l0.005127,0c0.010162,-5.832909 4.605591,-10.648384 10.16687,-10.659039l96.270416,0c5.556213,0.010654 10.121155,4.799496 10.166901,10.60577l0,39.669113c-0.020325,5.832901 -4.615784,10.648376 -10.171997,10.659035z" stroke-width="2" fill="#8bc34a"/>
  <text xml:space="preserve" text-anchor="start" font-family="Helvetica, Arial, sans-serif" font-size="42" id="svg_3" y="116.5" x="31.5" stroke-opacity="null" stroke-width="0" stroke="#2196f3" fill="#2196f3">G5</text>
  <text style="cursor: move;" xml:space="preserve" text-anchor="start" font-family="Helvetica, Arial, sans-serif" font-size="42" id="svg_4" y="70.5" x="154.5" stroke-opacity="null" stroke-width="0" stroke="#2196f3" fill="#2196f3">Files &amp;</text>
  <text xml:space="preserve" text-anchor="start" font-family="Helvetica, Arial, sans-serif" font-size="42" id="svg_5" y="113.5" x="154.5" stroke-opacity="null" stroke-width="0" stroke="#2196f3" fill="#2196f3">Folders</text>
 </g>
</svg>