<svg width="60" height="60"  xmlns="http://www.w3.org/2000/svg">
 <g>
  <circle cx="30" cy="30" r="25" fill="none" stroke-width="1" stroke="#000" id="0"/>
  <path id="svg_4" d="m38.463044,18.833122c-2.046948,-1.695193 -4.254694,-3.053149 -6.065727,-3.238279c-0.098592,-0.012008 -0.200704,-0.019013 -0.308685,-0.021015l-11.919013,0c-0.190141,0 -0.377934,0.063044 -0.511737,0.180127c-0.132629,0.11408 -0.211268,0.274193 -0.211268,0.437308l0,25.768134c0,0.162114 0.073944,0.317223 0.211268,0.435306c0.137324,0.116082 0.318075,0.179126 0.511737,0.179126l21.553988,0c0.190141,0 0.372066,-0.062044 0.50939,-0.179126c0.137324,-0.117082 0.213615,-0.272192 0.213615,-0.435306l0,-17.147067c-0.042254,-1.990401 -1.870892,-4.160928 -3.983568,-5.979208zm2.535211,22.506839l-20.107979,0l0,-24.535267l11.199529,0l0,0.002001c0.488263,-0.025018 0.909624,0.386272 1.232394,1.326934c0.293427,0.89563 0.367371,2.063452 0.366197,2.873022c0.002347,0.593418 -0.03169,0.991698 -0.03169,0.991698l-0.057512,0.652459l0.769953,0.007005c0.003521,0 1.779343,0.018013 3.521126,0.35525c1.673709,0.308217 2.982394,0.922649 3.10446,1.618139c0.004695,0.062044 0.005869,0.124087 0.004695,0.182128l0,16.526631l-0.001174,0z" fill-opacity="null" stroke-opacity="null" stroke-width="1" stroke="#000" fill="#000"/>
  <path d="m26.166666,27.447916c0,1 -0.382685,1.07612 0,2.000002c0.541197,1.306564 1,1 1,1c0,0 0,0 0,0c1,0 1,0 1,0c1,-1 1.999998,-1 3,-2.000002c1.000002,-1.000002 2.000002,-1 3.000002,-2l0,0l1,0l0,0" id="svg_5" fill-opacity="null" stroke-opacity="null" stroke-width="1" stroke="#000" fill="none"/>
  <line stroke-linecap="null" stroke-linejoin="null" id="svg_8" y2="35.114583" x2="36" y1="35.114583" x1="24" fill-opacity="null" stroke-opacity="null" stroke-width="1" stroke="#000" fill="none"/>
 </g>
</svg>